<svg width="29" height="29" viewBox="0 0 29 29" fill="none" xmlns="http://www.w3.org/2000/svg">
<path d="M1.86004e-07 12.0847C-0.00100669 6.36823 4.0859 1.35351 9.65492 0.241031C16.2046 -1.06777 22.5328 3.07911 23.9092 9.63117C24.5647 12.7532 24.018 15.7 22.3466 18.4233C22.1885 18.68 22.2157 18.8069 22.4221 19.0112C24.3613 20.9322 26.2925 22.8621 28.2167 24.7982C29.3605 25.9489 29.2336 27.6644 27.9539 28.5655C26.9772 29.2531 25.7095 29.1172 24.7973 28.2111C23.3424 26.7664 21.8955 25.3126 20.4456 23.8629C19.9472 23.3645 19.4427 22.8732 18.9554 22.3638C18.7963 22.1977 18.6876 22.1796 18.4842 22.3074C16.4423 23.5951 14.208 24.1991 11.7955 24.1599C6.34734 24.0703 1.48313 20.1006 0.303069 14.7768C0.108743 13.8898 0.00100706 12.9938 1.86004e-07 12.0847ZM20.5402 12.0736C20.5362 7.42031 16.7473 3.62982 12.0946 3.62478C7.4257 3.61975 3.62273 7.4193 3.62576 12.0877C3.62878 16.739 7.41966 20.5315 12.0714 20.5375C16.7393 20.5446 20.5443 16.741 20.5402 12.0736Z" fill="black"/>
</svg>
